<svg width="48" height="45" viewBox="0 0 48 45" fill="none" xmlns="http://www.w3.org/2000/svg">
<path d="M4.25773 9.03178C11.3381 -0.201171 25.9964 -2.88783 36.431 3.46665C46.7346 9.74129 50.5241 21.8049 46.3039 33.1239C42.3191 43.8117 31.8197 48.0464 24.2523 42.67C21.4175 40.6561 20.3186 38.1315 19.7875 34.0307L19.5338 31.7012L19.4244 30.7641C19.1292 28.5616 18.6756 27.5749 17.7288 27.058C16.4393 26.354 15.5808 26.3376 13.8877 26.9803L13.0424 27.3236L12.6121 27.5074C10.1714 28.5456 8.54786 28.9103 6.49429 28.4889L6.01219 28.3776L5.61848 28.2677C-1.0959 26.2299 -2.0904 17.3098 4.25773 9.03178ZM6.62721 24.869L6.9231 24.955L7.24558 25.0277C8.30265 25.2327 9.20606 25.0618 10.7052 24.4575L12.1549 23.8509C15.049 22.6886 16.9343 22.575 19.4869 23.9685C21.696 25.1745 22.557 27.0282 22.9962 30.2399L23.1242 31.3226L23.2547 32.5764L23.3682 33.5724C23.7825 36.7823 24.5356 38.5018 26.3726 39.8069C31.8505 43.6987 39.6967 40.5341 42.9118 31.9107C46.5622 22.1199 43.331 11.8335 34.5243 6.47037C25.6787 1.08363 13.1015 3.38887 7.14518 11.156C2.15017 17.6695 2.76281 23.6051 6.62721 24.869ZM33.6499 20.1664C33.2198 18.594 34.1725 16.9778 35.7779 16.5565C37.3833 16.1352 39.0334 17.0683 39.4636 18.6407C39.8937 20.213 38.941 21.8293 37.3356 22.2506C35.7302 22.6719 34.0801 21.7388 33.6499 20.1664ZM34.8407 28.3926C34.4105 26.8202 35.3632 25.204 36.9686 24.7827C38.574 24.3614 40.2241 25.2945 40.6543 26.8669C41.0844 28.4393 40.1317 30.0555 38.5263 30.4768C36.921 30.8981 35.2708 29.965 34.8407 28.3926ZM28.8867 13.0861C28.4566 11.5137 29.4093 9.8975 31.0147 9.47618C32.62 9.05486 34.2702 9.98798 34.7003 11.5604C35.1305 13.1327 34.1778 14.749 32.5724 15.1703C30.967 15.5916 29.3169 14.6585 28.8867 13.0861ZM28.8182 34.3042C28.388 32.7318 29.3407 31.1156 30.9461 30.6943C32.5515 30.2729 34.2016 31.2061 34.6318 32.7785C35.0619 34.3508 34.1092 35.9671 32.5038 36.3884C30.8985 36.8097 29.2483 35.8766 28.8182 34.3042ZM20.3994 10.7951C19.9692 9.22271 20.9219 7.60649 22.5273 7.18517C24.1327 6.76385 25.7828 7.69698 26.213 9.26936C26.6432 10.8417 25.6905 12.458 24.0851 12.8793C22.4797 13.3006 20.8295 12.3675 20.3994 10.7951Z" fill="#222222"/>
</svg>
