<svg width="46" height="46" viewBox="0 0 46 46" fill="none" xmlns="http://www.w3.org/2000/svg">
<path d="M11.5051 1.43482e-09C12.227 2.93383e-05 12.8726 0.449576 13.1229 1.12662L19.9114 19.4872C19.9212 19.5119 19.9304 19.537 19.9391 19.5623L20.4508 20.9461L18.5464 25.7429L17.1061 21.8472H5.90225L3.3431 28.7671C3.01271 29.6605 2.02057 30.1169 1.12709 29.7865C0.233617 29.4562 -0.222858 28.4642 0.10753 27.5708L3.06933 19.5621C3.07802 19.5368 3.08728 19.5118 3.0971 19.487L9.88727 1.12648C10.1376 0.449465 10.7832 -2.93239e-05 11.5051 1.43482e-09ZM7.17787 18.3979H15.8308L11.5048 6.69779L7.17787 18.3979ZM27.1571 10.2864C27.4181 9.6291 28.0538 9.19771 28.7611 9.19803C29.4683 9.19834 30.1037 9.6303 30.364 10.2878L43.1391 42.5505L44.2752 42.5505C45.2278 42.5505 46 43.3227 46 44.2752C46 45.2277 45.2277 45.9998 44.2751 45.9998L41.9981 45.9997C41.9897 45.9999 41.9812 46 41.9728 46C41.9607 46 41.9486 45.9999 41.9365 45.9997L38.5275 45.9996C37.5749 45.9996 36.8027 45.2275 36.8027 44.275C36.8028 43.3225 37.575 42.5504 38.5276 42.5504L39.4289 42.5504L36.6935 35.6423H20.8022L18.0596 42.5505L18.9775 42.5505C19.9301 42.5505 20.7023 43.3227 20.7023 44.2752C20.7022 45.2277 19.93 45.9998 18.9774 45.9998L15.5509 45.9997C15.5433 45.9998 15.5358 45.9999 15.5282 46C15.5143 46 15.5004 46 15.4864 45.9997L13.2298 45.9996C12.2772 45.9996 11.505 45.2275 11.505 44.275C11.505 43.3225 12.2773 42.5504 13.2299 42.5504L14.3481 42.5504L27.1571 10.2864ZM35.3277 32.1931L28.7582 15.6023L22.1715 32.1931H35.3277Z" fill="#222222"/>
</svg>
