<svg width="92" height="92" viewBox="0 0 92 92" fill="none" xmlns="http://www.w3.org/2000/svg">
<path d="M92 46C92 71.4051 71.4051 92 46 92C20.5949 92 2.45592e-07 71.4051 5.48545e-07 46C8.51497e-07 20.5949 20.5949 2.45592e-07 46 5.48545e-07C71.4051 8.51497e-07 92 20.5949 92 46ZM46.3079 65.8579C47.4307 64.7352 47.4307 62.9148 46.3079 61.7921L33.3909 48.875L66.125 48.875C67.7128 48.875 69 47.5878 69 46C69 44.4122 67.7128 43.125 66.125 43.125L33.3909 43.125L46.3079 30.2079C47.4307 29.0852 47.4307 27.2648 46.3079 26.1421C45.1852 25.0193 43.3648 25.0193 42.2421 26.1421L24.4171 43.9671C23.2943 45.0898 23.2943 46.9102 24.4171 48.0329L42.2421 65.8579C43.3648 66.9807 45.1852 66.9807 46.3079 65.8579Z" fill="#212121"/>
</svg>
