<svg width="51" height="36" viewBox="0 0 51 36" fill="none" xmlns="http://www.w3.org/2000/svg">
<path d="M24.9395 13.4217C24.1925 12.6687 22.9815 12.669 22.2348 13.4223C21.4881 14.1757 21.4884 15.3968 22.2355 16.1497L24.0707 17.9996L22.2352 19.8506C21.4883 20.6037 21.4883 21.8248 22.2352 22.578C22.982 23.3311 24.193 23.3311 24.9398 22.578L26.7761 20.7263L28.6105 22.5753C29.3575 23.3283 30.5685 23.328 31.3152 22.5746C32.0619 21.8213 32.0616 20.6002 31.3145 19.8472L29.4808 17.9989L31.3148 16.1494C32.0617 15.3963 32.0617 14.1752 31.3148 13.422C30.568 12.6689 29.357 12.6689 28.6101 13.422L26.7754 15.2721L24.9395 13.4217ZM8.20984 13.4223C8.95654 12.669 10.1675 12.6687 10.9145 13.4217L12.7504 15.2721L14.5851 13.422C15.332 12.6689 16.543 12.6689 17.2898 13.422C18.0367 14.1752 18.0367 15.3963 17.2898 16.1494L15.4558 17.9989L17.2895 19.8472C18.0366 20.6002 18.0369 21.8213 17.2902 22.5746C16.5435 23.328 15.3325 23.3283 14.5855 22.5753L12.7511 20.7263L10.9148 22.578C10.168 23.3311 8.95704 23.3311 8.21016 22.578C7.46328 21.8248 7.46328 20.6037 8.21016 19.8506L10.0457 17.9996L8.21048 16.1497C7.46342 15.3968 7.46314 14.1757 8.20984 13.4223ZM36.975 21.8571C35.9188 21.8571 35.0625 22.7206 35.0625 23.7857C35.0625 24.8508 35.9188 25.7143 36.975 25.7143H41.4376C42.4938 25.7143 43.3501 24.8508 43.3501 23.7857C43.3501 22.7206 42.4938 21.8571 41.4376 21.8571H36.975ZM8.28553 0C3.70771 0 0 3.7424 0 8.35714V27.6429C0 32.2584 3.71044 36 8.2875 36H42.7125C47.2896 36 51 32.2584 51 27.6429V8.35714C51 3.74239 47.2923 0 42.7145 0H8.28553ZM3.825 8.35714C3.825 5.87109 5.82173 3.85714 8.28553 3.85714H42.7145C45.1783 3.85714 47.175 5.87109 47.175 8.35714V27.6429C47.175 30.1281 45.1771 32.1429 42.7125 32.1429H8.2875C5.82293 32.1429 3.825 30.1281 3.825 27.6429V8.35714Z" fill="#222222"/>
</svg>
