<svg width="92" height="92" viewBox="0 0 92 92" fill="none" xmlns="http://www.w3.org/2000/svg">
<path d="M35.1943 90.7786C38.7399 91.5901 42.3725 92 46.0176 92C49.655 91.9963 53.2795 91.5841 56.8169 90.7718C57.7469 90.557 58.5853 90.0725 59.2178 89.3844C59.8504 88.6962 60.2464 87.8378 60.352 86.926L61.1626 79.8623C61.2996 78.5991 61.9022 77.4243 62.862 76.5493C63.8218 75.6744 65.0756 75.1567 66.398 75.0895C67.2772 75.053 68.1534 75.2104 68.9593 75.5496L75.6912 78.381C76.2766 78.6333 76.9104 78.7657 77.5521 78.7696C78.1939 78.7736 78.8295 78.6491 79.4181 78.404C80.0092 78.1619 80.5404 77.8029 80.977 77.3505C85.927 72.2335 89.6224 66.1204 91.7932 59.458C92.0774 58.5741 92.0685 57.6275 91.7678 56.7487C91.4671 55.8699 90.8894 55.1023 90.1144 54.5518L84.1331 50.3196C83.4207 49.8234 82.8409 49.1725 82.4411 48.4201C82.0413 47.6677 81.8329 46.8353 81.8329 45.9908C81.8329 45.1464 82.0413 44.3139 82.4411 43.5615C82.8409 42.8091 83.4207 42.1582 84.1331 41.662L90.0952 37.439C90.8726 36.8878 91.4518 36.1182 91.7526 35.2371C92.0534 34.3559 92.0609 33.4067 91.7739 32.5213C89.6025 25.858 85.9026 19.7458 80.9458 14.6333C80.2891 13.9601 79.4306 13.499 78.489 13.3136C77.5474 13.1282 76.569 13.2277 75.6889 13.5983L68.9593 16.4412C68.2611 16.7429 67.5043 16.8997 66.7385 16.9013C65.3567 16.8993 64.0244 16.4079 62.9971 15.5216C61.9698 14.6352 61.32 13.4163 61.1722 12.0986L60.3568 5.06028C60.2524 4.1365 59.8496 3.2671 59.2045 2.5738C58.5595 1.8805 57.7046 1.39801 56.7594 1.19379C53.2405 0.440338 49.6493 0.0402336 46.044 0C42.4132 0.0402065 38.7965 0.441077 35.2518 1.1961C34.3077 1.39917 33.4535 1.88008 32.8085 2.57169C32.1634 3.26331 31.76 4.13103 31.6544 5.0534L30.8366 12.0963C30.6834 13.4154 30.0285 14.6339 28.9972 15.5189C27.9437 16.377 26.616 16.8639 25.2343 16.899C24.4722 16.8985 23.7185 16.7466 23.0207 16.4528L16.3056 13.6098C15.4225 13.2359 14.4399 13.135 13.4943 13.3213C12.5488 13.5077 11.6872 13.9719 11.0294 14.6495C6.07875 19.7629 2.38245 25.873 0.210874 32.5328C-0.0758951 33.4179 -0.0683548 34.3667 0.232464 35.2475C0.533284 36.1282 1.11246 36.8973 1.88965 37.4482L7.85891 41.6712C8.5655 42.1716 9.14007 42.8238 9.53654 43.5755C9.93302 44.3273 10.1404 45.1576 10.1421 46C10.1429 46.8438 9.93661 47.676 9.53998 48.4292C9.14335 49.1824 8.56746 49.8355 7.85891 50.3357L1.88727 54.5657C1.11104 55.1162 0.532472 55.8845 0.231696 56.7643C-0.0690805 57.6442 -0.077218 58.5919 0.208458 59.4764C2.37534 66.1425 6.07117 72.2586 11.0246 77.3759C11.4549 77.8226 11.9777 78.1783 12.5595 78.4202C13.1465 78.6675 13.7806 78.7953 14.4218 78.7953C15.0629 78.7953 15.697 78.6675 16.284 78.4202L23.0447 75.5749C23.7421 75.2801 24.4961 75.1281 25.2583 75.1287H25.2775C26.6537 75.1304 27.9812 75.6174 29.0072 76.4971C30.0332 77.3768 30.686 78.5876 30.8414 79.8991L31.652 86.9305C31.7579 87.8435 32.1549 88.703 32.7888 89.3917C33.4228 90.0803 34.2628 90.5647 35.1943 90.7786ZM46.0002 60.3758C37.7219 60.3758 31.0111 53.9395 31.0111 46C31.0111 38.0605 37.7219 31.6243 46.0002 31.6243C54.2784 31.6243 60.9893 38.0605 60.9893 46C60.9893 53.9395 54.2784 60.3758 46.0002 60.3758Z" fill="#212121"/>
</svg>
