<svg width="51" height="51" viewBox="0 0 51 51" fill="none" xmlns="http://www.w3.org/2000/svg">
<path d="M35.4167 25.5C37.7639 25.5 39.6667 27.4028 39.6667 29.75V31.1667C39.6667 36.7524 34.3981 42.5 25.5 42.5C16.6019 42.5 11.3333 36.7524 11.3333 31.1667V29.75C11.3333 27.4028 13.2361 25.5 15.5833 25.5H35.4167ZM25.5 7.08333C29.8032 7.08333 33.2917 10.5718 33.2917 14.875C33.2917 19.1782 29.8032 22.6667 25.5 22.6667C21.1968 22.6667 17.7083 19.1782 17.7083 14.875C17.7083 10.5718 21.1968 7.08333 25.5 7.08333ZM9.20833 0C4.12271 0 0 4.12271 0 9.20833V41.7917C0 46.8773 4.12271 51 9.20833 51H41.7917C46.8773 51 51 46.8773 51 41.7917V9.20833C51 4.12271 46.8773 0 41.7917 0H9.20833ZM4.25 9.20833C4.25 6.46992 6.46992 4.25 9.20833 4.25H41.7917C44.5301 4.25 46.75 6.46992 46.75 9.20833V41.7917C46.75 44.5301 44.5301 46.75 41.7917 46.75H9.20833C6.46992 46.75 4.25 44.5301 4.25 41.7917V9.20833Z" fill="#212121"/>
</svg>
